<svg version="1.1" xmlns="http://www.w3.org/2000/svg" width="414px" height="449px" transform="rotate(0) scale(1, 1)">
<path d="M0 0 C136.62 0 273.24 0 414 0 C414 148.17 414 296.34 414 449 C277.38 449 140.76 449 0 449 C0 300.83 0 152.66 0 0 Z " fill="#000000" transform="translate(0,0)"/>
<path d="M0 0 C136.62 0 273.24 0 414 0 C414 148.17 414 296.34 414 449 C277.38 449 140.76 449 0 449 C0 300.83 0 152.66 0 0 Z M138.125 29.375 C136.83082153 30.67667114 136.83082153 30.67667114 135.51049805 32.00463867 C127.68792133 40.03893235 121.07038953 48.58823377 115 58 C114.5875 58.63711914 114.175 59.27423828 113.75 59.93066406 C111.01787958 64.20634264 108.47635984 68.57223805 106 73 C105.60216309 73.70141113 105.20432617 74.40282227 104.79443359 75.12548828 C75.5028011 127.13727896 66.00515965 188.65506973 65.875 247.625 C65.87098175 248.64936661 65.87098175 248.64936661 65.86688232 249.69442749 C64.98792284 265.21135399 64.98792284 265.21135399 70 279.3125 C70.62648437 280.21871094 71.25296875 281.12492187 71.8984375 282.05859375 C72.59195313 283.02925781 73.28546875 283.99992187 74 285 C82.4781999 297.28496295 88.69570762 308.64706613 89 324 C87.824375 324.21914063 86.64875 324.43828125 85.4375 324.6640625 C78.40891942 326.23480223 71.72411977 328.83880473 65 331.375 C64.29979736 331.6377774 63.59959473 331.90055481 62.87817383 332.17129517 C43.44972241 339.49557863 24.88642066 348.44407961 7 359 C7.52058787 363.11737677 9.65112727 364.99002414 12.5625 367.8125 C13.38878906 368.62332031 14.21507812 369.43414062 15.06640625 370.26953125 C41.18561639 394.89753009 75.3598507 418.99121663 110.13671875 429.0859375 C112.73725759 429.91612316 115.19924133 430.88138227 117.72265625 431.91796875 C141.09285087 441.35688863 167.86690746 445.72269968 193 446 C194.21139648 446.02433105 195.42279297 446.04866211 196.67089844 446.07373047 C215.00938985 446.43728345 232.86480816 446.10678568 251 443 C252.26094482 442.79117188 252.26094482 442.79117188 253.54736328 442.578125 C308.38576721 433.27873717 360.94483492 407.94278246 400 368 C400.66 367.67 401.32 367.34 402 367 C402 366.34 402 365.68 402 365 C403.32 364.34 404.64 363.68 406 363 C406 361.68 406 360.36 406 359 C385.49121207 347.40967109 364.45090939 337.10749102 342.234375 329.18359375 C339.94095218 328.34433395 337.68165032 327.40906573 335.453125 326.41015625 C332.23424574 325.09565918 329.43621869 324.41905106 326 324 C326.95505904 306.04488996 334.48531495 293.52736087 344.77734375 279.1328125 C350.76223997 270.69715913 349.20362481 259.21603149 349.1875 249.25 C349.18689575 248.55569885 349.1862915 247.86139771 349.18566895 247.14605713 C349.1193292 218.70653281 347.00752827 189.8545066 341 162 C340.77940918 160.95553711 340.55881836 159.91107422 340.33154297 158.83496094 C334.90122068 133.50299005 327.43674151 109.32941691 316 86 C315.60699707 85.19481934 315.21399414 84.38963867 314.80908203 83.56005859 C304.70884556 63.0949684 291.59508916 45.5856192 276 29 C275.34386719 28.278125 274.68773437 27.55625 274.01171875 26.8125 C270.05252044 22.60744141 265.70431333 19.0997062 261.0625 15.6875 C260.50135498 15.26645996 259.94020996 14.84541992 259.36206055 14.41162109 C254.85054533 11.19770852 250.30640521 9.50457922 245 8 C244.33669678 7.80059814 243.67339355 7.60119629 242.98999023 7.39575195 C206.35323175 -3.04411912 165.28497618 2.00446044 138.125 29.375 Z " fill="#fbfbfb" transform="translate(0,0)"/>
<path d="M0 0 C0.78953064 -0.00139984 1.57906128 -0.00279968 2.39251709 -0.00424194 C31.5053533 0.03805505 51.20021552 6.91449619 71.9375 27.25 C78.15966694 33.52193615 83.62361233 40.2959806 88.8125 47.4375 C89.5235791 48.41468994 89.5235791 48.41468994 90.24902344 49.41162109 C104.32990804 69.0373831 114.79111815 90.70604734 122.8125 113.4375 C123.09673828 114.23784668 123.38097656 115.03819336 123.67382812 115.86279297 C138.06833913 157.07791997 142.82215567 201.63258538 142.9375 245.0625 C142.94026947 245.75208801 142.94303894 246.44167603 142.94589233 247.15216064 C143.01247989 269.80882895 143.01247989 269.80882895 138.6875 275.9375 C138.05714844 276.85789062 137.42679687 277.77828125 136.77734375 278.7265625 C135.52497657 280.45448063 134.26767398 282.17883994 133.00390625 283.8984375 C124.5352019 295.55469427 120.8681542 306.25897204 119.8125 320.4375 C120.90304687 320.67533203 120.90304687 320.67533203 122.015625 320.91796875 C128.9594412 322.5292902 135.31453943 324.67262875 141.82226562 327.56103516 C144.21285131 328.6138078 146.61396719 329.64070719 149.015625 330.66796875 C166.3963774 338.12423486 183.56644289 345.71106777 199.8125 355.4375 C199.8125 356.7575 199.8125 358.0775 199.8125 359.4375 C198.4925 360.0975 197.1725 360.7575 195.8125 361.4375 C195.8125 362.0975 195.8125 362.7575 195.8125 363.4375 C194.484375 364.77734375 194.484375 364.77734375 192.5625 366.375 C189.06792932 369.32772958 185.74751645 372.40461522 182.4375 375.5625 C175.47306478 382.05540258 167.78475706 387.5009557 159.97753906 392.92675781 C158.06191123 394.26346338 156.16590906 395.62305002 154.2734375 396.9921875 C125.12666211 417.6821507 89.7992401 430.86702369 54.8125 437.4375 C53.56984375 437.69144531 52.3271875 437.94539063 51.046875 438.20703125 C29.61443595 442.53866794 8.58773465 442.77050644 -13.1875 442.4375 C-14.11626953 442.42879883 -15.04503906 442.42009766 -16.00195312 442.41113281 C-71.97202709 441.72971713 -127.59647481 417.35727413 -171.1875 383.4375 C-172.20972656 382.64859375 -173.23195313 381.8596875 -174.28515625 381.046875 C-183.04024467 374.08406536 -191.27828211 366.34671789 -199.1875 358.4375 C-199.1875 357.4475 -199.1875 356.4575 -199.1875 355.4375 C-179.03681178 344.31373051 -158.93313859 334.42287379 -137.3125 326.4375 C-136.65366821 326.19335358 -135.99483643 325.94920715 -135.31604004 325.69766235 C-133.42416066 324.99987727 -131.52853757 324.31226856 -129.6328125 323.625 C-127.98563232 323.02751953 -127.98563232 323.02751953 -126.30517578 322.41796875 C-123.26575892 321.46211142 -120.33909945 320.87833286 -117.1875 320.4375 C-117.24926632 303.8532443 -124.75473416 291.68614059 -134.21875 278.63671875 C-134.8478125 277.72535156 -135.476875 276.81398438 -136.125 275.875 C-136.69089844 275.08996094 -137.25679687 274.30492187 -137.83984375 273.49609375 C-141.72452645 264.67955301 -140.3519837 253.50758571 -140.3125 244.0625 C-140.31028442 243.35519745 -140.30806885 242.6478949 -140.30578613 241.91915894 C-140.18598097 209.16304491 -136.99402979 177.30430659 -129.1875 145.4375 C-128.94773437 144.45749023 -128.70796875 143.47748047 -128.4609375 142.46777344 C-118.12168122 101.01133238 -100.65338472 59.20417624 -70.1875 28.4375 C-69.14819918 27.33999833 -68.11050085 26.24097745 -67.07421875 25.140625 C-56.32161546 13.85915196 -45.97287283 5.67301777 -30.31860352 2.83081055 C-28.82367431 2.55491056 -27.33461634 2.24613818 -25.85131836 1.91333008 C-17.27472204 0.09906568 -8.72546712 -0.00147885 0 0 Z M-61.1875 51.4375 C-61.93773437 52.13617188 -62.68796875 52.83484375 -63.4609375 53.5546875 C-96.62133523 85.31885795 -115.27774648 139.68715521 -116.34863281 184.94384766 C-116.36823479 186.57969505 -116.38196565 188.21562059 -116.390625 189.8515625 C-116.39759399 190.73587952 -116.40456299 191.62019653 -116.41174316 192.53131104 C-116.42907149 195.37508938 -116.43546395 198.21867104 -116.4375 201.0625 C-116.43850708 202.02947815 -116.43951416 202.9964563 -116.44055176 203.99273682 C-116.42743959 222.55301344 -115.99256184 240.91063656 -109.1875 258.4375 C-108.95047363 259.05254395 -108.71344727 259.66758789 -108.46923828 260.30126953 C-102.6877892 275.04704957 -94.58921656 287.4746183 -84.1875 299.4375 C-83.12595703 300.66533203 -83.12595703 300.66533203 -82.04296875 301.91796875 C-73.70999866 311.36200151 -64.81586026 320.31466516 -55.1875 328.4375 C-54.29289062 329.22125 -53.39828125 330.005 -52.4765625 330.8125 C-38.26009242 343.19325113 -22.80915687 354.10022253 -6.96191406 364.28662109 C-5.44934214 365.26767008 -3.96714276 366.29528734 -2.4921875 367.33203125 C0.46758853 368.75172043 1.68908938 368.30735495 4.8125 367.4375 C6.89455524 366.34778806 6.89455524 366.34778806 8.859375 364.91796875 C9.61299316 364.39662354 10.36661133 363.87527832 11.14306641 363.33813477 C11.94147949 362.77280029 12.73989258 362.20746582 13.5625 361.625 C14.82006104 360.74702759 14.82006104 360.74702759 16.10302734 359.85131836 C17.83707086 358.63905569 19.56866943 357.42328851 21.29785156 356.20410156 C23.60173193 354.58556968 25.91828966 352.98802991 28.2421875 351.3984375 C43.43975661 340.94308583 57.50644715 329.20189053 70.8125 316.4375 C71.40772461 315.87482422 72.00294922 315.31214844 72.61621094 314.73242188 C87.01990022 301.0710362 98.88022328 286.21393648 107.8125 268.4375 C108.38742187 267.31214844 108.96234375 266.18679688 109.5546875 265.02734375 C114.16340086 255.22522951 116.02841918 245.05837379 117.8125 234.4375 C117.9882959 233.55465332 118.1640918 232.67180664 118.34521484 231.76220703 C118.95531065 227.42141043 119.01336941 223.15218963 119.05078125 218.7734375 C119.06052979 217.83633438 119.07027832 216.89923126 119.08032227 215.93373108 C119.25228593 195.08904792 119.0012635 174.94094255 114.8125 154.4375 C114.63589844 153.52468262 114.45929688 152.61186523 114.27734375 151.67138672 C107.86298495 119.13039427 94.87712465 86.53746985 72.8125 61.4375 C71.70068359 60.14392578 71.70068359 60.14392578 70.56640625 58.82421875 C56.16414163 42.37518516 35.28871543 27.46462702 12.8125 25.4375 C-16.1928915 23.67584268 -40.00637039 31.08429728 -61.1875 51.4375 Z " fill="#17110a" transform="translate(206.1875,3.5625)"/>
<path d="M0 0 C-1 2 -2 4 -3 6 C0.35478581 5.88909054 3.70855176 5.75871222 7.0625 5.625 C8.00544922 5.5940625 8.94839844 5.563125 9.91992188 5.53125 C14.04445433 5.35879568 17.90940415 5.17876239 21.87109375 3.9609375 C27.03351104 2.37547601 27.03351104 2.37547601 30 3 C32.70305297 4.9183971 35.01782505 7.17723422 37.375 9.5 C38.37744751 10.46413818 38.37744751 10.46413818 39.40014648 11.44775391 C43.85324479 15.76838766 48.09916523 20.17191762 52 25 C52.57492187 25.59425781 53.14984375 26.18851563 53.7421875 26.80078125 C58.20874614 31.77162877 58.64563963 35.78472504 58.34765625 42.36328125 C57.96936163 46.32049801 57.4719564 50.2490102 56.9375 54.1875 C55.9250806 61.6622082 55.7825258 67.94339567 57.96484375 75.21484375 C63.96226621 95.55485657 61.51903888 116.02352815 56.8046875 136.36328125 C55.87333493 140.57245234 55.05399049 144.79625996 54.25 149.03125 C53.94681572 150.61330421 53.64351139 152.19533541 53.34008789 153.77734375 C52.89204794 156.11528838 52.44619214 158.45350331 52.00875854 160.79345703 C49.88883388 172.07841872 47.85978882 181.85686791 39.5625 190.25 C39.04461914 190.79156738 38.52673828 191.33313477 37.99316406 191.89111328 C36.34225962 193.60779672 34.67321672 195.30507824 33 197 C32.43974121 197.57395508 31.87948242 198.14791016 31.30224609 198.73925781 C25.59798627 204.57976326 19.87624504 210.40055942 13.609375 215.64453125 C11.84234478 217.09366021 11.84234478 217.09366021 9.75 219.25 C1.67500313 224.38863437 -8.47109371 224.45411945 -17.75 224.3125 C-18.82121094 224.31572266 -19.89242187 224.31894531 -20.99609375 224.32226562 C-36.45752265 224.21766801 -36.45752265 224.21766801 -41.875 218.9375 C-44.71915287 216.19294782 -47.62351312 213.53515908 -50.578125 210.91015625 C-56.14526471 205.90709472 -61.54091332 200.75002514 -66.875 195.5 C-68.25945312 194.17162109 -68.25945312 194.17162109 -69.671875 192.81640625 C-79.32939009 183.28485875 -81.53161298 174.98312665 -83.875 161.8125 C-84.3813781 159.03050354 -84.8936144 156.24959928 -85.40625 153.46875 C-85.53518646 152.76297318 -85.66412292 152.05719635 -85.79696655 151.33003235 C-86.66733179 146.61958873 -87.65670906 141.95230791 -88.71875 137.28125 C-93.54067898 115.82345658 -95.91493788 95.31211322 -89.58007812 73.9699707 C-86.99019539 64.1981001 -88.70540449 54.70543402 -90.16796875 44.8515625 C-91.45588659 36.16375983 -91.39816929 31.39645011 -86.3984375 24.0703125 C-83.57332969 20.45380641 -80.6066216 17.06676411 -77.4375 13.75 C-76.89585205 13.16460449 -76.3542041 12.57920898 -75.79614258 11.97607422 C-74.18359375 10.359375 -74.18359375 10.359375 -71 8 C-68.26293945 8.33544922 -68.26293945 8.33544922 -65 9 C-47.37578123 9.96661572 -29.62119304 10.61474762 -13 4 C-11.42412109 3.39478516 -11.42412109 3.39478516 -9.81640625 2.77734375 C-8.14709793 2.11672386 -6.4871235 1.43076234 -4.84765625 0.69921875 C-3 0 -3 0 0 0 Z " fill="#ffffff" transform="translate(224,67)"/>
<path d="M0 0 C7.34161667 6.2074282 7.34161667 6.2074282 10.68359375 9.62109375 C11.29686523 10.24290527 11.91013672 10.8647168 12.54199219 11.50537109 C13.16750977 12.14297363 13.79302734 12.78057617 14.4375 13.4375 C19.46414045 18.50707173 24.50213381 23.43888991 30 28 C30.79019531 28.70253906 31.58039063 29.40507812 32.39453125 30.12890625 C37.50201355 34.54841143 42.69081871 38.19136876 48.625 41.375 C49.2219165 41.69654053 49.81883301 42.01808105 50.43383789 42.34936523 C58.3269763 46.41793787 66.30646887 48.44440171 75.0625 49.6875 C75.92810547 49.81705078 76.79371094 49.94660156 77.68554688 50.08007812 C79.78930608 50.39389856 81.89451257 50.69799214 84 51 C79.43568197 66.99848719 74.97654434 81.03495207 60.453125 90.39453125 C57 92 57 92 54.53515625 92.09375 C50.72137137 90.44835745 47.52945064 88.13432612 44.1875 85.6875 C43.44483887 85.15278076 42.70217773 84.61806152 41.93701172 84.06713867 C39.61626148 82.38929565 37.30660301 80.6972284 35 79 C33.92274658 78.20964355 33.92274658 78.20964355 32.82373047 77.40332031 C24.35503276 71.17189606 16.01479233 64.81018812 8 58 C7.34696899 57.56016785 6.69393799 57.12033569 6.02111816 56.66717529 C2.75050172 54.26882913 0.38285418 52.41049837 -0.70483398 48.40327454 C-0.92448069 45.29320041 -0.90042617 42.27572663 -0.78125 39.16015625 C-0.76993042 38.03806259 -0.75861084 36.91596893 -0.74694824 35.75987244 C-0.70233022 32.19231059 -0.60198469 28.62883717 -0.5 25.0625 C-0.45985463 22.63742802 -0.42335573 20.21229276 -0.390625 17.78710938 C-0.30264309 11.85668901 -0.16895041 5.92863657 0 0 Z " fill="#ffffff" transform="translate(152,269)"/>
<path d="M0 0 C3.86050654 3.74758496 7.35390492 7.69467303 10.8125 11.8125 C17.0497927 19.1545918 23.57618 25.88831927 30.890625 32.16796875 C33.17629546 34.15311587 35.39701378 36.2003983 37.625 38.25 C43.82517955 43.83583249 50.37599604 48.93173461 57 54 C57.67998047 54.52094238 58.35996094 55.04188477 59.06054688 55.57861328 C61.16107206 57.18315414 63.26677328 58.78059479 65.375 60.375 C66.01646973 60.86266846 66.65793945 61.35033691 67.31884766 61.8527832 C71.72906473 65.1641449 76.28114388 68.14691895 81 71 C79 72 79 72 76.78295898 71.29418945 C75.86329346 70.90448975 74.94362793 70.51479004 73.99609375 70.11328125 C72.95718994 69.6752417 71.91828613 69.23720215 70.84790039 68.78588867 C69.72246826 68.29967041 68.59703613 67.81345215 67.4375 67.3125 C65.70391235 66.57060425 65.70391235 66.57060425 63.93530273 65.8137207 C49.7732569 59.69185147 35.50638953 53.43561195 22.21484375 45.58203125 C18.84508209 43.74100974 17.31681858 43.00690989 13.41796875 42.921875 C11.72607422 43.45554687 11.72607422 43.45554687 10 44 C9.26861816 44.22494141 8.53723633 44.44988281 7.78369141 44.68164062 C5.27076142 45.48261488 2.79338436 46.35488411 0.3125 47.25 C-0.57598633 47.56646484 -1.46447266 47.88292969 -2.37988281 48.20898438 C-9.01716162 50.59482357 -15.53654353 53.17599312 -22 56 C-23.71896484 56.71349609 -23.71896484 56.71349609 -25.47265625 57.44140625 C-34.99881995 61.43748321 -44.10701527 66.08866511 -53.19458008 71.00024414 C-54.60453247 71.75422485 -54.60453247 71.75422485 -56.04296875 72.5234375 C-56.87852295 72.97638184 -57.71407715 73.42932617 -58.57495117 73.89599609 C-61.1040749 75.04738011 -63.23425087 75.72284889 -66 76 C-68.45703125 74.234375 -68.45703125 74.234375 -70.8125 71.75 C-71.60269531 70.94046875 -72.39289063 70.1309375 -73.20703125 69.296875 C-75 67 -75 67 -75 64 C-54.84931178 52.87623051 -34.74563859 42.98537379 -13.125 35 C-12.46616821 34.75585358 -11.80733643 34.51170715 -11.12854004 34.26016235 C-9.23666066 33.56237727 -7.34103757 32.87476856 -5.4453125 32.1875 C-4.34719238 31.78917969 -3.24907227 31.39085937 -2.11767578 30.98046875 C0.92174108 30.02461142 3.84840055 29.44083286 7 29 C6.96672818 20.06651667 4.79240491 13.10994727 1.27734375 5.0546875 C0 2 0 2 0 0 Z " fill="#313131" transform="translate(82,295)"/>
<path d="M0 0 C1 3 1 3 0.29296875 4.69921875 C-0.07183594 5.35535156 -0.43664062 6.01148438 -0.8125 6.6875 C-4.02615189 13.38168144 -4.31938271 20.70127512 -5 28 C-4.27296875 28.15855469 -3.5459375 28.31710937 -2.796875 28.48046875 C4.1469412 30.0917902 10.50203943 32.23512875 17.00976562 35.12353516 C19.40035131 36.1763078 21.80146719 37.20320719 24.203125 38.23046875 C41.5838774 45.68673486 58.75394289 53.27356777 75 63 C75 64.32 75 65.64 75 67 C73.02 67.99 73.02 67.99 71 69 C71 69.66 71 70.32 71 71 C68.75 73.1875 68.75 73.1875 66 75 C63.05277873 74.60728416 60.84915582 73.47248643 58.32421875 71.953125 C43.16428895 63.09518656 27.27100125 56.4911145 11 50 C9.97165039 49.5860498 8.94330078 49.17209961 7.88378906 48.74560547 C5.28382101 47.70643046 2.67683923 46.68988085 0.0625 45.6875 C-0.65687744 45.40358398 -1.37625488 45.11966797 -2.11743164 44.82714844 C-8.11280901 42.60882285 -12.8618863 41.73507692 -18.80249023 44.12963867 C-22.16444341 45.75812174 -25.4569307 47.48642832 -28.75 49.25 C-31.23069193 50.54361491 -33.71947588 51.82101736 -36.2109375 53.09375 C-36.84685822 53.41937927 -37.48277893 53.74500854 -38.13796997 54.08050537 C-45.08650493 57.60611939 -52.20300772 60.71105257 -59.375 63.75 C-60.55030273 64.25047852 -61.72560547 64.75095703 -62.93652344 65.26660156 C-67.9152038 67.36327146 -72.8573481 69.33678787 -78 71 C-73.77847335 66.45504994 -69.03101891 62.98033101 -64 59.375 C-56.64405743 54.0328169 -49.62361467 48.48707888 -42.77880859 42.5078125 C-40.48690888 40.56507675 -38.13371536 38.70292311 -35.7890625 36.82421875 C-29.97510295 32.07910303 -24.65460395 26.9516034 -19.375 21.625 C-18.4984375 20.75617188 -17.621875 19.88734375 -16.71875 18.9921875 C-10.70866161 12.96426502 -5.2712701 6.68015142 0 0 Z " fill="#2d2d2d" transform="translate(331,296)"/>
<path d="M0 0 C1.4643782 -0.02816738 2.92850917 -0.07604487 4.39160156 -0.14355469 C12.23753525 -0.50242148 18.28294848 -0.59854121 24.47705078 4.93823242 C25.91710025 6.47627998 27.32600779 8.04432648 28.69580078 9.64526367 C30.02017697 10.98749437 31.35069914 12.32380344 32.69580078 13.64526367 C32.36580078 14.30526367 32.03580078 14.96526367 31.69580078 15.64526367 C31.03193359 15.36811523 30.36806641 15.0909668 29.68408203 14.80541992 C28.35957031 14.26208008 28.35957031 14.26208008 27.00830078 13.70776367 C26.13818359 13.34811523 25.26806641 12.9884668 24.37158203 12.61791992 C18.68040085 10.54915479 13.37241937 10.49229892 7.38330078 10.52026367 C6.56667969 10.51639648 5.75005859 10.5125293 4.90869141 10.50854492 C-4.10699782 10.14327324 -4.10699782 10.14327324 -12.25732422 13.02807617 C-12.68529297 13.60299805 -13.11326172 14.17791992 -13.55419922 14.77026367 C-14.02599609 15.40319336 -14.49779297 16.03612305 -14.98388672 16.68823242 C-15.41958984 17.33405273 -15.85529297 17.97987305 -16.30419922 18.64526367 C-16.71927734 19.21889648 -17.13435547 19.7925293 -17.56201172 20.38354492 C-22.46855157 27.8462891 -20.02537478 36.48168567 -18.49169922 44.70776367 C-18.32605469 45.66231445 -18.16041016 46.61686523 -17.98974609 47.6003418 C-17.22474749 51.78329642 -16.44317793 55.65692068 -14.65966797 59.53198242 C-13.31759903 62.61448659 -12.97720265 64.12698081 -13.42919922 67.39526367 C-13.51427734 68.13260742 -13.59935547 68.86995117 -13.68701172 69.62963867 C-14.44347411 72.1001108 -15.24831139 73.09046923 -17.30419922 74.64526367 C-19.35498047 75.27026367 -19.35498047 75.27026367 -21.61669922 75.64526367 C-24.72031138 76.2318915 -26.58950273 76.79932757 -29.42919922 78.33276367 C-33.24024958 80.07259101 -35.2878821 79.7210629 -39.30419922 78.64526367 C-40.27357422 77.96463867 -41.24294922 77.28401367 -42.24169922 76.58276367 C-46.29315632 74.01959693 -48.59228012 74.32030373 -53.30419922 74.64526367 C-53.30419922 70.64526367 -53.30419922 70.64526367 -52.30419922 69.64526367 C-45.84266076 69.28628931 -45.84266076 69.28628931 -42.30419922 71.64526367 C-37.6094213 72.41431301 -34.13372767 72.09075117 -29.92919922 69.83276367 C-28.62982422 68.74995117 -28.62982422 68.74995117 -27.30419922 67.64526367 C-26.68544922 67.23276367 -26.06669922 66.82026367 -25.42919922 66.39526367 C-21.19544531 59.80942426 -26.04361223 47.34296688 -27.52685547 40.37573242 C-30.81453945 24.2754743 -30.81453945 24.2754743 -28.21044922 18.01635742 C-27.74638672 17.37827148 -27.28232422 16.74018555 -26.80419922 16.08276367 C-23.83679202 11.4017833 -23.87030211 8.11236719 -24.30419922 2.64526367 C-16.26770937 0.57877258 -8.25512348 0.1135518 0 0 Z " fill="#000000" transform="translate(245.30419921875,134.354736328125)"/>
<path d="M0 0 C6.75 0.875 6.75 0.875 9 2 C9.16496609 4.03669669 9.22352231 6.08180492 9.25 8.125 C9.5960533 18.42845793 11.86932717 28.45296126 13.91699219 38.52197266 C14.11986092 39.52312859 14.11986092 39.52312859 14.326828 40.54450989 C14.70191661 42.38643625 15.08331841 44.22707371 15.46508789 46.06762695 C16 49 16 49 16 52 C10.89678824 50.39613345 7.53561856 47.86687723 4.97265625 43.08203125 C3.83285705 40.42249978 2.90119633 37.75066642 2 35 C1.78279297 34.33709961 1.56558594 33.67419922 1.34179688 32.99121094 C-4.78254892 13.89314653 -4.78254892 13.89314653 -3 4 C-1.46875 1.6484375 -1.46875 1.6484375 0 0 Z " fill="#ffffff" transform="translate(114,166)"/>
<path d="M0 0 C3.63793998 5.45690997 2.77294392 12.65215139 2 19 C-2.88896763 43.11021547 -2.88896763 43.11021547 -10.5625 49.375 C-11.16191406 49.87773437 -11.76132812 50.38046875 -12.37890625 50.8984375 C-14 52 -14 52 -16 52 C-15.15051621 45.97537155 -14.2173967 39.98693241 -13.01171875 34.0234375 C-11.04332018 24.26176901 -9.54283374 14.92805308 -9.37109375 4.95703125 C-9.24863281 3.98121094 -9.12617188 3.00539062 -9 2 C-5.54970958 -0.30019361 -4.05445642 -0.43132515 0 0 Z " fill="#ffffff" transform="translate(302,166)"/>
<path d="M0 0 C1.27746094 0.00064453 2.55492187 0.00128906 3.87109375 0.00195312 C4.87003662 0.01440063 4.87003662 0.01440063 5.88916016 0.02709961 C7.87259114 0.05029623 9.85628327 0.04594986 11.83984375 0.04101562 C20.59408816 0.08911587 28.91450196 0.89960267 37.5390625 2.36328125 C37.2090625 5.33328125 36.8790625 8.30328125 36.5390625 11.36328125 C35.0183358 11.39081956 33.49745576 11.409915 31.9765625 11.42578125 C31.12964844 11.43738281 30.28273437 11.44898438 29.41015625 11.4609375 C26.5390625 11.36328125 26.5390625 11.36328125 23.4296875 10.87890625 C10.05680098 9.10659599 -4.01256155 8.78837907 -16.4609375 14.36328125 C-17.7865137 14.72623664 -19.11807618 15.07068532 -20.4609375 15.36328125 C-19.01147645 12.02354368 -17.17921362 9.84023466 -14.5859375 7.30078125 C-13.90789062 6.62917969 -13.22984375 5.95757812 -12.53125 5.265625 C-11.50644531 4.32396484 -11.50644531 4.32396484 -10.4609375 3.36328125 C-9.89149414 2.83653809 -9.32205078 2.30979492 -8.73535156 1.76708984 C-5.6967587 -0.10838342 -3.55697269 -0.00924603 0 0 Z " fill="#000000" transform="translate(158.4609375,134.63671875)"/>
<path d="M0 0 C0.66 -0.33 1.32 -0.66 2 -1 C9.10798558 -1.92712855 14.63617084 1.09763347 21 4 C22.74976181 4.77137387 24.49973338 5.54227226 26.25 6.3125 C27.50066299 6.87352436 28.75094605 7.43540238 30 8 C30 8.33 30 8.66 30 9 C9.21 9 -11.58 9 -33 9 C-29.13149777 6.09862332 -25.61678748 4.25645093 -21.25 2.3125 C-20.57195312 1.99216797 -19.89390625 1.67183594 -19.1953125 1.34179688 C-12.53148603 -1.62905352 -7.1388227 -1.46975761 0 0 Z " fill="#000000" transform="translate(210,230)"/>
<path d="M0 0 C2.70782904 1.7645931 3.71056357 2.90959535 5.5625 5.6875 C1.9325 4.6975 -1.6975 3.7075 -5.4375 2.6875 C-5.4375 4.3375 -5.4375 5.9875 -5.4375 7.6875 C-6.9375 10 -6.9375 10 -9.4375 11.6875 C-12.6217319 12.14239027 -14.42129303 12.3876909 -17.4375 11.6875 C-21.22283014 8.78809819 -22.27127246 7.35241015 -23.4375 2.6875 C-28.8825 4.1725 -28.8825 4.1725 -34.4375 5.6875 C-25.52873721 -3.22126279 -11.60904779 -6.21913274 0 0 Z " fill="#000000" transform="translate(181.4375,154.3125)"/>
<path d="M0 0 C0.7014917 0.00539795 1.4029834 0.0107959 2.12573242 0.01635742 C9.37132438 0.22938877 14.04278904 2.17660172 19.0625 7.4375 C15.59308454 6.97927532 12.38854951 6.54618317 9.0625 5.4375 C8.98 6.18 8.8975 6.9225 8.8125 7.6875 C7.86882018 11.14765935 7.018199 12.39124685 4.0625 14.4375 C1.28341259 15.00244795 -1.15841259 15.00244795 -3.9375 14.4375 C-7.90385751 11.69156018 -7.9477389 10.3863055 -8.9375 5.4375 C-14.3825 6.9225 -14.3825 6.9225 -19.9375 8.4375 C-14.15616997 1.9554027 -8.54150463 -0.12586619 0 0 Z " fill="#000000" transform="translate(249.9375,151.5625)"/>
<path d="M0 0 C0.83096191 0.24339111 0.83096191 0.24339111 1.67871094 0.49169922 C4.23271013 1.05095735 6.52670794 1.12950614 9.140625 1.1328125 C10.12933594 1.13410156 11.11804688 1.13539063 12.13671875 1.13671875 C13.16410156 1.13285156 14.19148437 1.12898437 15.25 1.125 C16.26191406 1.12886719 17.27382812 1.13273438 18.31640625 1.13671875 C23.97262964 1.12938253 29.40611774 0.84309709 35 0 C33.40611533 3.91226238 31.31752712 6.38606154 28 9 C24.67164829 9.73719663 21.45914819 9.69921664 18.0625 9.625 C17.18142578 9.64433594 16.30035156 9.66367187 15.39257812 9.68359375 C10.97109922 9.65047406 7.89742273 9.39913449 4.37109375 6.5859375 C2 4 2 4 2 2 C1.34 2 0.68 2 0 2 C0 1.34 0 0.68 0 0 Z " fill="#000000" transform="translate(191,250)"/>
<path d="M0 0 C3.625 0.1875 3.625 0.1875 6.625 2.1875 C9.37018321 2.42937651 9.37018321 2.42937651 12.3125 2.3125 C13.30636719 2.29445312 14.30023438 2.27640625 15.32421875 2.2578125 C16.08347656 2.23460937 16.84273437 2.21140625 17.625 2.1875 C16.965 4.1675 16.305 6.1475 15.625 8.1875 C13 8.9375 13 8.9375 9.625 9.1875 C8.67625 8.548125 7.7275 7.90875 6.75 7.25 C2.64470922 4.54050808 0.44658511 4.85497689 -4.375 5.1875 C-4.375 0.24305556 -4.375 0.24305556 0 0 Z " fill="#000000" transform="translate(196.375,203.8125)"/>
<path d="M0 0 C0 2 0 2 -1 5 C-1 4.34 -1 3.68 -1 3 C-6.445 4.485 -6.445 4.485 -12 6 C-4.5 -1.5 -4.5 -1.5 0 0 Z " fill="#000000" transform="translate(159,154)"/>
<path d="M0 0 C1.81612488 0.95144598 3.62781081 1.91136933 5.4375 2.875 C6.44683594 3.40867187 7.45617187 3.94234375 8.49609375 4.4921875 C11 6 11 6 12 8 C7.27934033 6.45730076 2.58335908 4.92205381 -2 3 C-1.34 2.67 -0.68 2.34 0 2 C0 1.34 0 0.68 0 0 Z " fill="#2a2a2a" transform="translate(151,359)"/>
<path d="M0 0 C0.33 0.99 0.66 1.98 1 3 C2.40105576 4.42857119 2.40105576 4.42857119 4.0625 5.6875 C5.031875 6.450625 6.00125 7.21375 7 8 C6.01 8.66 5.02 9.32 4 10 C2.99105628 9.07213211 1.99309093 8.13231567 1 7.1875 C0.1646875 6.40439453 0.1646875 6.40439453 -0.6875 5.60546875 C-2 4 -2 4 -2 1 C-1.34 0.67 -0.68 0.34 0 0 Z " fill="#404040" transform="translate(9,358)"/>
<path d="M0 0 C-0.33 0.33 -0.66 0.66 -1 1 C-0.34 1.66 0.32 2.32 1 3 C-2.63 3 -6.26 3 -10 3 C-4.28571429 -1.28571429 -4.28571429 -1.28571429 0 0 Z " fill="#000000" transform="translate(187,236)"/>
<path d="M0 0 C-0.66 1.65 -1.32 3.3 -2 5 C-3.32 4.67 -4.64 4.34 -6 4 C-6 3.34 -6 2.68 -6 2 C-6.99 1.34 -7.98 0.68 -9 0 C-2.25 -1.125 -2.25 -1.125 0 0 Z " fill="#000000" transform="translate(214,207)"/>
<path d="M0 0 C1.32 1.32 2.64 2.64 4 4 C3.01 4.33 2.02 4.66 1 5 C1 7.97 1 10.94 1 14 C0.67 14 0.34 14 0 14 C0 9.38 0 4.76 0 0 Z " fill="#ffffff" transform="translate(152,269)"/>
</svg>